<svg width="100" height="100" viewBox="0 0 100 100" fill="none" xmlns="http://www.w3.org/2000/svg">
<path d="M79.4037 33.9183C79.2945 34.5471 79.0417 35.1423 78.665 35.6575C78.2882 36.1727 77.7977 36.594 77.2315 36.8887C76.7627 37.1425 76.2437 37.2896 75.7114 37.3197C75.1792 37.3497 74.6469 37.2619 74.1525 37.0625C73.9962 36.9748 73.8133 36.9474 73.6382 36.9854C73.4631 37.0234 73.308 37.1243 73.2021 37.2688C72.3115 38.2029 71.3721 39.0935 70.4869 40.0221C70.2976 40.2272 70.0661 40.3888 69.8083 40.4957C69.5504 40.6026 69.2724 40.6522 68.9935 40.6412C65.9579 40.6412 62.9277 40.6412 59.8921 40.6412H59.2948C59.9356 41.5752 60.5709 42.4549 61.152 43.3564C61.4345 43.8393 61.6779 44.3442 61.8796 44.866C62.2109 45.6372 61.9883 46.2888 61.3366 46.5658C61.1834 46.6293 61.0184 46.6589 60.8527 46.6527C60.687 46.6465 60.5246 46.6046 60.3766 46.5298C60.2286 46.4551 60.0985 46.3492 59.9952 46.2195C59.8919 46.0898 59.8178 45.9393 59.7781 45.7784C58.9228 43.6052 57.3898 41.7657 55.4066 40.5325C54.0049 39.6534 52.4195 39.1091 50.7734 38.9418C49.1273 38.7746 47.4648 38.9889 45.915 39.5681C44.3651 40.1473 42.9696 41.0759 41.8366 42.2817C40.7037 43.4876 39.8639 44.9383 39.3824 46.5212C38.9008 48.1041 38.7905 49.7768 39.06 51.4092C39.3295 53.0417 39.9715 54.5901 40.9363 55.9343C41.901 57.2785 43.1625 58.3823 44.6229 59.16C46.0833 59.9377 47.7032 60.3685 49.357 60.4189C50.4866 60.4623 50.8721 60.8587 50.8776 61.9937V64.7089H51.5401C55.2545 64.7089 58.9635 64.7089 62.6725 64.7089C63.0189 64.6786 63.3661 64.7569 63.6659 64.9331C63.9656 65.1093 64.203 65.3745 64.3451 65.6918C65.3334 67.5653 66.3815 69.4117 67.3861 71.2743C67.4094 71.3495 67.4487 71.4187 67.5013 71.4771C67.554 71.5356 67.6187 71.5819 67.691 71.6129C67.7633 71.6439 67.8414 71.6588 67.9201 71.6566C67.9987 71.6544 68.0759 71.6352 68.1464 71.6002C69.0017 71.3572 69.9142 71.4126 70.7339 71.7572C71.5535 72.1018 72.2315 72.7151 72.6562 73.4963C73.0809 74.2774 73.2271 75.1799 73.0707 76.0552C72.9143 76.9305 72.4646 77.7265 71.7957 78.3122C71.129 78.9002 70.2825 79.2446 69.3947 79.2889C68.5069 79.3333 67.6303 79.0751 66.9082 78.5566C66.1688 78.0336 65.6354 77.2687 65.4004 76.394C65.1653 75.5194 65.2435 74.5901 65.6212 73.7669C65.7054 73.6116 65.7449 73.436 65.7353 73.2596C65.7257 73.0832 65.6674 72.913 65.5669 72.7677C64.5786 71.0028 63.6174 69.2162 62.629 67.4567C62.5731 67.3543 62.4956 67.2654 62.4018 67.196C62.308 67.1266 62.2003 67.0784 62.086 67.0549C58.377 67.0549 54.668 67.0549 50.8613 67.0549V77.7474C50.8613 78.9258 50.4703 79.3114 49.2919 79.3114H47.0925C43.0088 79.3114 43.3238 79.6698 43.3347 75.5101V74.5978C42.1454 74.1851 40.9778 73.8321 39.8592 73.3705C38.7405 72.9089 37.687 72.3333 36.476 71.7413C35.7972 72.4256 35.0695 73.1641 34.3364 73.9135C33.4567 74.7987 32.9191 74.7987 32.0393 73.9135L25.3219 67.2015C24.4964 66.3706 24.4964 65.8167 25.3219 64.9913L27.4343 62.906C26.4622 60.5601 25.5282 58.3118 24.5562 55.9767C23.6601 55.9767 22.6175 55.9767 21.5748 55.9767C21.2479 56.0243 20.9146 55.9601 20.6287 55.7945C20.3429 55.6289 20.1214 55.3717 20 55.0644V44.2035C20.1258 43.899 20.3494 43.6451 20.6356 43.4819C20.9218 43.3187 21.2541 43.2554 21.5803 43.3021C22.4871 43.3021 23.394 43.3021 24.2955 43.3021C24.6267 43.3021 24.7788 43.2097 24.8385 42.8894C24.9802 42.2914 25.1616 41.7036 25.3816 41.1299C26.0332 39.5714 26.7229 38.0291 27.4289 36.4163L25.2838 34.2875C24.453 33.4567 24.453 32.9028 25.2838 32.0828C27.532 29.8309 29.7839 27.5809 32.0393 25.3327C32.8919 24.4801 33.4241 24.4856 34.293 25.3327C35.0261 26.0604 35.7537 26.7989 36.4651 27.5429C38.4968 26.3588 40.6748 25.446 42.9437 24.8277C43.0323 24.777 43.1072 24.7055 43.1621 24.6194C43.217 24.5334 43.2501 24.4352 43.2586 24.3335C43.2912 23.4103 43.2912 22.4871 43.2586 21.5585C43.2096 21.2322 43.2747 20.8989 43.4429 20.615C43.6111 20.3311 43.8721 20.1138 44.1818 20H49.8621C50.1728 20.1117 50.4354 20.3273 50.6056 20.6102C50.7758 20.8932 50.8431 21.2263 50.7961 21.5531C50.7961 24.8874 50.7961 28.2217 50.7961 31.556V32.1479C50.8595 32.1706 50.925 32.187 50.9916 32.1968C54.6626 32.1968 58.3336 32.1968 62.0046 32.1968C62.1098 32.1815 62.2105 32.1434 62.2996 32.0853C62.3887 32.0271 62.464 31.9503 62.5205 31.8601C63.5522 30.03 64.5732 28.1946 65.5669 26.3428C65.6125 26.2373 65.636 26.1237 65.636 26.0088C65.636 25.8939 65.6125 25.7803 65.5669 25.6748C65.2929 25.109 65.1588 24.4857 65.1758 23.8573C65.1928 23.2289 65.3605 22.6137 65.6647 22.0636C65.9657 21.5339 66.3778 21.0756 66.8728 20.7203C67.3677 20.365 67.9338 20.1211 68.5319 20.0054H69.7755L70.2643 20.1683C71.2582 20.4509 72.1007 21.114 72.609 22.0136C73.1173 22.9133 73.2504 23.9771 72.9795 24.9743C72.8447 25.4783 72.6098 25.9499 72.289 26.3612C71.9681 26.7726 71.5677 27.1151 71.1116 27.3684C70.6556 27.6218 70.1533 27.7808 69.6345 27.8359C69.1157 27.8911 68.5912 27.8413 68.0921 27.6895C67.7065 27.5809 67.549 27.6895 67.3807 28.0154C66.3761 29.8563 65.328 31.6809 64.3505 33.5381C64.2074 33.8632 63.9658 34.135 63.6599 34.3153C63.3539 34.4956 62.999 34.5751 62.6453 34.5428C58.9526 34.5428 55.2654 34.5428 51.5727 34.5428H50.9156V36.6498C52.697 36.833 54.4255 37.3624 56.0039 38.2083C56.1977 38.2897 56.4078 38.3251 56.6175 38.3115C60.56 38.3115 64.5008 38.3115 68.4396 38.3115C68.7171 38.2999 68.982 38.1924 69.189 38.0074C70.0036 37.2417 70.7639 36.4163 71.5784 35.6506C71.7222 35.5466 71.8227 35.3934 71.8608 35.2202C71.8988 35.0469 71.8718 34.8657 71.7848 34.7111C71.5058 33.9861 71.4557 33.193 71.6411 32.4386C71.8266 31.6842 72.2387 31.0047 72.822 30.4916C73.4151 29.96 74.1548 29.6196 74.9444 29.515C75.734 29.4104 76.5367 29.5463 77.2478 29.9052C77.8119 30.204 78.3005 30.6272 78.6769 31.1428C79.0532 31.6583 79.3073 32.2528 79.42 32.881L79.4037 33.9183ZM22.346 53.696H25.3436C26.3048 53.696 26.636 53.9349 26.8587 54.8581C27.467 57.4183 28.4789 59.8655 29.8563 62.1077C30.3993 62.9549 30.3124 63.3404 29.6065 64.0464C28.9005 64.7524 28.2163 65.4312 27.5918 66.0557C29.5033 67.978 31.3931 69.857 33.2829 71.7631C33.9454 71.0951 34.6296 70.3946 35.3302 69.7049C36.0307 69.0153 36.4163 68.9664 37.2308 69.4714C39.4695 70.8494 41.9129 71.8631 44.4696 72.4745C45.4308 72.7025 45.6535 73.0175 45.6589 74.0221V76.96H48.5425V63.0581C48.5483 62.9441 48.5483 62.8299 48.5425 62.7159C45.3377 62.427 42.3531 60.9628 40.1633 58.6051C37.8825 56.1668 36.5575 53.2561 36.6498 49.9164C36.8778 42.2105 41.1788 37.9694 48.537 36.4977V22.3785H45.686V25.2567C45.686 26.3428 45.4743 26.636 44.437 26.8858C41.9188 27.4866 39.5121 28.4838 37.3068 29.84C36.4271 30.383 36.0416 30.3124 35.3139 29.5956L33.3426 27.6244L27.6244 33.3263C27.5972 33.2938 27.6244 33.3263 27.6244 33.3589L29.4707 35.1998C30.3396 36.0687 30.3885 36.362 29.7531 37.4155C28.5353 39.405 27.6202 41.5646 27.0379 43.8234C26.5708 45.6589 26.5546 45.6535 24.643 45.6535H22.3405L22.346 53.696ZM70.8127 23.9751C70.8127 23.6529 70.7172 23.3379 70.5382 23.07C70.3592 22.8021 70.1047 22.5933 69.807 22.47C69.5094 22.3467 69.1818 22.3144 68.8658 22.3773C68.5498 22.4401 68.2595 22.5953 68.0316 22.8231C67.8038 23.051 67.6486 23.3412 67.5858 23.6573C67.5229 23.9733 67.5552 24.3008 67.6785 24.5985C67.8018 24.8962 68.0106 25.1507 68.2785 25.3297C68.5464 25.5087 68.8614 25.6042 69.1836 25.6042C69.6157 25.6042 70.0301 25.4326 70.3356 25.1271C70.6411 24.8215 70.8127 24.4072 70.8127 23.9751ZM69.1836 73.7452C68.8614 73.7452 68.5464 73.8407 68.2785 74.0197C68.0106 74.1988 67.8018 74.4532 67.6785 74.7509C67.5552 75.0486 67.5229 75.3761 67.5858 75.6921C67.6486 76.0082 67.8038 76.2985 68.0316 76.5263C68.2595 76.7541 68.5498 76.9093 68.8658 76.9722C69.1818 77.035 69.5094 77.0028 69.807 76.8794C70.1047 76.7561 70.3592 76.5473 70.5382 76.2794C70.7172 76.0115 70.8127 75.6965 70.8127 75.3743C70.8128 74.9451 70.6434 74.5331 70.3414 74.2281C70.0394 73.923 69.6291 73.7495 69.1999 73.7452H69.1836ZM77.0632 33.4187C77.0697 32.9866 76.9043 32.5696 76.6033 32.2595C76.3024 31.9494 75.8906 31.7716 75.4585 31.7651C75.0264 31.7586 74.6095 31.924 74.2994 32.225C73.9893 32.5259 73.8114 32.9377 73.8049 33.3698C73.7984 33.8018 73.9639 34.2188 74.2648 34.5289C74.5657 34.839 74.9775 35.0169 75.4096 35.0234C75.8417 35.0298 76.2586 34.8644 76.5687 34.5635C76.8789 34.2625 77.0567 33.8507 77.0632 33.4187V33.4187Z" fill="#EB4648"/>
<path d="M79.4037 66.4521C79.2922 67.0815 79.0386 67.6771 78.6622 68.1938C78.2858 68.7104 77.7965 69.1343 77.2316 69.4334C76.521 69.7945 75.7177 69.9317 74.9276 69.827C74.1375 69.7223 73.3977 69.3806 72.8057 68.8469C72.2224 68.3339 71.8103 67.6544 71.6248 66.9C71.4394 66.1456 71.4895 65.3525 71.7685 64.6275C71.8567 64.4732 71.8844 64.2916 71.8463 64.118C71.8082 63.9444 71.7069 63.7911 71.5622 63.688C70.7476 62.9169 69.9819 62.0969 69.1673 61.3312C68.9624 61.1462 68.6992 61.0386 68.4234 61.0271C65.9905 61.0271 63.5359 61.0271 61.1194 61.0271C60.3754 61.0271 59.9138 60.7121 59.7889 60.1528C59.6043 59.3491 60.1473 58.7246 61.0705 58.7191C63.4111 58.7191 65.7516 58.7789 68.0867 58.6865C68.6489 58.6264 69.2172 58.7087 69.7392 58.9261C70.2612 59.1434 70.7201 59.4887 71.0734 59.9301C71.7778 60.7268 72.5304 61.4794 73.3271 62.1838C73.4142 62.254 73.5165 62.3028 73.6259 62.3264C73.7353 62.35 73.8487 62.3476 73.957 62.3195C74.4914 62.104 75.0665 62.0081 75.642 62.0385C76.2174 62.0689 76.7792 62.2249 77.2879 62.4956C77.7966 62.7662 78.2399 63.145 78.5867 63.6052C78.9334 64.0655 79.1752 64.596 79.2951 65.1596C79.3204 65.2526 79.3531 65.3434 79.3929 65.4312L79.4037 66.4521ZM77.0795 65.9579C77.086 65.6344 76.996 65.3163 76.8209 65.0441C76.6459 64.772 76.3938 64.5581 76.0967 64.4298C75.7997 64.3014 75.4711 64.2645 75.153 64.3236C74.8348 64.3828 74.5415 64.5353 74.3104 64.7618C74.0793 64.9883 73.9209 65.2784 73.8553 65.5953C73.7898 65.9122 73.8201 66.2414 73.9424 66.541C74.0647 66.8406 74.2734 67.097 74.542 67.2775C74.8105 67.458 75.1268 67.5544 75.4504 67.5545C75.8778 67.5545 76.2881 67.3866 76.5928 67.0869C76.8976 66.7873 77.0724 66.3798 77.0795 65.9525V65.9579Z" fill="#FFC700"/>
<path d="M79.4038 50.2422C79.2853 50.8479 79.0365 51.4205 78.6745 51.9203C78.3125 52.4201 77.8461 52.8352 77.3076 53.1366C76.8351 53.3941 76.3145 53.5511 75.7784 53.5978C75.2424 53.6445 74.7024 53.5799 74.1925 53.4081C73.6826 53.2363 73.2137 52.9609 72.8153 52.5992C72.4168 52.2376 72.0974 51.7975 71.8771 51.3066C71.8314 51.1459 71.7279 51.0078 71.5867 50.9186C71.4454 50.8294 71.2762 50.7955 71.1115 50.8233C70.2046 50.8233 69.2922 50.8233 68.3962 50.8233C68.236 50.8413 68.0738 50.8256 67.9201 50.7773C67.7663 50.7289 67.6243 50.649 67.5032 50.5426C67.3822 50.4361 67.2847 50.3056 67.217 50.1592C67.1494 50.0129 67.113 49.8541 67.1104 49.6929C67.1077 49.5317 67.1388 49.3718 67.2016 49.2233C67.2644 49.0748 67.3575 48.9411 67.475 48.8308C67.5925 48.7204 67.7317 48.6358 67.8838 48.5824C68.0359 48.529 68.1975 48.508 68.3582 48.5208C69.3248 48.4936 70.2915 48.5207 71.2581 48.4936C71.3664 48.4828 71.4712 48.4486 71.5649 48.3933C71.6587 48.338 71.7393 48.2628 71.8011 48.1732C72.1167 47.4329 72.6484 46.8052 73.3267 46.3721C74.0049 45.939 74.7981 45.7207 75.6024 45.7458C76.4672 45.7849 77.2953 46.1068 77.9594 46.6621C78.6236 47.2173 79.0871 47.9752 79.2789 48.8194C79.3071 48.9094 79.3434 48.9967 79.3875 49.0801L79.4038 50.2422ZM77.0795 49.6991C77.0795 49.2671 76.9079 48.8527 76.6024 48.5472C76.2968 48.2417 75.8825 48.07 75.4504 48.07C75.0183 48.07 74.6039 48.2417 74.2984 48.5472C73.9929 48.8527 73.8213 49.2671 73.8213 49.6991C73.8213 50.1312 73.9929 50.5456 74.2984 50.8511C74.6039 51.1567 75.0183 51.3283 75.4504 51.3283C75.8825 51.3283 76.2968 51.1567 76.6024 50.8511C76.9079 50.5456 77.0795 50.1312 77.0795 49.6991Z" fill="#FFC700"/>
<path d="M49.7154 58.4639C47.4084 58.47 45.1914 57.5689 43.5426 55.9552C41.8938 54.3415 40.9454 52.1443 40.902 49.8376C40.8585 47.531 41.7234 45.2997 43.3102 43.6249C44.897 41.9502 47.0785 40.9664 49.3842 40.8855C50.2422 40.8529 50.8287 41.3036 50.845 42.015C50.8613 42.7264 50.34 43.1446 49.4819 43.1934C48.227 43.2408 47.0128 43.6516 45.9869 44.3759C44.961 45.1002 44.1675 46.1069 43.7028 47.2736C43.2381 48.4403 43.1222 49.7168 43.3693 50.9481C43.6163 52.1794 44.2156 53.3125 45.0943 54.2097C45.973 55.1069 47.0934 55.7296 48.3193 56.0022C49.5452 56.2747 50.8238 56.1855 52 55.7451C53.1761 55.3048 54.199 54.5324 54.9445 53.5218C55.69 52.5112 56.1259 51.3058 56.1994 50.0521C56.27 49.004 56.7425 48.461 57.4538 48.5316C58.1652 48.6022 58.5834 49.1995 58.5074 50.2259C58.3638 52.4594 57.3748 54.5543 55.7416 56.0847C54.1084 57.615 51.9536 58.4657 49.7154 58.4639V58.4639Z" fill="#FFC700"/>
<path d="M62.8029 49.6448C62.8007 49.9451 62.6844 50.2333 62.4778 50.451C62.2711 50.6688 61.9893 50.7999 61.6896 50.8178C61.5354 50.8214 61.382 50.7944 61.2383 50.7384C61.0945 50.6823 60.9633 50.5984 60.8522 50.4913C60.7411 50.3843 60.6524 50.2563 60.591 50.1147C60.5297 49.9731 60.4971 49.8208 60.4949 49.6666C60.4916 49.3698 60.6025 49.0831 60.8047 48.8657C61.0068 48.6484 61.2848 48.5171 61.581 48.499C61.7371 48.4917 61.893 48.5158 62.0395 48.5699C62.186 48.6239 62.3203 48.7068 62.4342 48.8136C62.5481 48.9205 62.6394 49.0491 62.7028 49.1919C62.7661 49.3346 62.8002 49.4887 62.8029 49.6448V49.6448Z" fill="#FFC700"/>
<path d="M57.2855 59.8215C57.2897 60.047 57.227 60.2687 57.1053 60.4585C56.9836 60.6484 56.8083 60.7979 56.6016 60.8881C56.3949 60.9784 56.1661 61.0053 55.9441 60.9655C55.7221 60.9257 55.5169 60.821 55.3544 60.6646C55.1919 60.5082 55.0795 60.3071 55.0312 60.0868C54.983 59.8665 55.0012 59.6368 55.0835 59.4269C55.1658 59.2169 55.3086 59.036 55.4937 58.9071C55.6787 58.7783 55.8979 58.7072 56.1234 58.7028C56.4246 58.7013 56.7146 58.8172 56.9316 59.0262C57.1486 59.2351 57.2756 59.5204 57.2855 59.8215V59.8215Z" fill="#FFC700"/>
<path d="M31.5017 48.9009C31.6483 42.0205 36.324 35.3573 42.8296 32.8213C42.9728 32.7403 43.1313 32.6901 43.2949 32.6737C43.4586 32.6574 43.6239 32.6754 43.7802 32.7264C43.9366 32.7775 44.0806 32.8606 44.203 32.9705C44.3254 33.0803 44.4236 33.2145 44.4914 33.3644C44.5581 33.5162 44.5912 33.6806 44.5885 33.8464C44.5857 34.0123 44.5472 34.1755 44.4755 34.3251C44.4039 34.4746 44.3007 34.6069 44.1732 34.7129C44.0456 34.8189 43.8967 34.8961 43.7365 34.9392C41.6947 35.7693 39.8461 37.0116 38.3061 38.5884C35.54 41.3922 33.9358 45.1379 33.8151 49.0746C33.8091 49.3628 33.7782 49.6498 33.7228 49.9326C33.6719 50.1913 33.5287 50.4226 33.3199 50.5835C33.1111 50.7443 32.8509 50.8238 32.5878 50.807C32.3151 50.7932 32.0562 50.683 31.8572 50.496C31.6583 50.309 31.5323 50.0574 31.5017 49.786C31.4853 49.4912 31.4853 49.1957 31.5017 48.9009Z" fill="#FFC700"/>
</svg>
