<svg width="100" height="100" viewBox="0 0 100 100" fill="none" xmlns="http://www.w3.org/2000/svg">
<path d="M48.85 70.8819C49.5681 70.8819 50.2963 70.8819 51.0296 70.8819C51.1864 70.8628 51.3456 70.8792 51.4952 70.9299C51.6449 70.9806 51.7812 71.0643 51.8942 71.1748C52.0071 71.2853 52.0938 71.4197 52.1477 71.5683C52.2017 71.7168 52.2216 71.8755 52.2059 72.0327C52.2587 73.2183 52.0718 74.4023 51.6564 75.5139C51.2411 76.6255 50.6058 77.642 49.7886 78.5025C48.9714 79.3629 47.989 80.0498 46.9003 80.5219C45.8115 80.9939 44.6387 81.2416 43.4521 81.25C38.2239 81.2806 32.9939 81.2806 27.7623 81.25C26.5761 81.2416 25.4038 80.9941 24.3154 80.5223C23.227 80.0505 22.2448 79.3642 21.4277 78.5042C20.6106 77.6443 19.9752 76.6285 19.5595 75.5174C19.1439 74.4064 18.9564 73.2229 19.0085 72.0378C18.9922 71.8807 19.0114 71.7219 19.0647 71.5731C19.118 71.4244 19.204 71.2895 19.3165 71.1786C19.429 71.0676 19.5649 70.9833 19.7143 70.9319C19.8638 70.8806 20.0228 70.8635 20.1797 70.8819C20.9131 70.8819 21.6464 70.8819 22.3593 70.8819C19.7163 63.4622 21.1218 57.1985 27.6452 52.5492C30.0104 50.9084 32.8246 50.0381 35.7031 50.0572C38.5816 50.0764 41.3839 50.984 43.7271 52.6561C50.1231 57.3157 51.4777 63.5488 48.85 70.8819ZM21.132 72.9901C21.2438 74.6188 21.9534 76.1488 23.1246 77.2861C24.2958 78.4235 25.8459 79.088 27.4772 79.1519C32.9091 79.2232 38.3308 79.2232 43.7423 79.1519C45.3694 79.0859 46.915 78.4224 48.0837 77.2885C49.2524 76.1546 49.9622 74.6297 50.0773 73.0054H41.7104C42.1178 75.5771 40.8142 77.1048 38.2629 77.1048C36.3431 77.1048 34.4181 77.1048 32.4983 77.1048C31.7569 77.1121 31.0381 76.8495 30.476 76.3661C29.9138 75.8826 29.5466 75.2113 29.4428 74.4771C29.4071 73.9838 29.4071 73.4885 29.4428 72.9952L21.132 72.9901ZM43.9511 70.8768C44.6488 70.8768 45.2497 70.8768 45.8455 70.8768C46.0137 70.9026 46.1856 70.8696 46.3322 70.7833C46.4788 70.697 46.5911 70.5627 46.6501 70.4032C47.5039 68.7521 47.9785 66.9314 48.0393 65.0736C48.1 63.2159 47.7454 61.368 47.0014 59.6647C46.2573 57.9614 45.1425 56.4456 43.7382 55.2278C42.334 54.0101 40.6757 53.121 38.8842 52.6256C36.4933 51.9619 33.9579 52.035 31.6093 52.8354C29.2606 53.6359 27.2082 55.1263 25.7203 57.112C22.6648 61.2623 22.3338 65.7283 24.5745 70.3522C24.6713 70.5559 24.8953 70.8157 25.0837 70.8309C25.7763 70.887 26.4842 70.8309 27.2327 70.8309C23.3778 65.0765 25.705 59.1184 29.1882 56.4449C31.0942 54.9599 33.457 54.1834 35.8723 54.2485C38.2876 54.3135 40.6052 55.2159 42.4285 56.8013C45.9626 59.9281 47.4954 65.6927 43.9511 70.8768ZM31.5205 70.8768C32.9362 70.8768 34.2043 70.8768 35.4723 70.8768C35.6566 70.8487 35.8228 70.7501 35.9357 70.6018C38.2884 67.6176 40.6309 64.625 42.9632 61.6238C43.0217 61.5434 43.0609 61.4506 43.0777 61.3525C43.0944 61.2545 43.0884 61.1539 43.06 61.0586C42.5202 60.198 41.9345 59.3628 41.3031 58.4309L31.5205 70.8768ZM29.3919 70.2249L39.5767 57.2647C38.8027 57.0101 38.1356 56.7555 37.4532 56.5875C37.3488 56.5702 37.2419 56.5778 37.141 56.6096C37.0401 56.6415 36.9482 56.6967 36.8727 56.7708C34.0379 60.5052 31.215 64.2651 28.404 68.0505C28.3523 68.1234 28.3176 68.2071 28.3026 68.2952C28.2877 68.3834 28.2927 68.4738 28.3174 68.5597C28.6128 69.0944 28.9998 69.6291 29.3919 70.2249ZM34.4843 56.4754C30.2067 56.7504 25.8985 62.5609 27.5434 65.7334L34.4843 56.4754ZM35.5843 75.0169C36.6028 75.0169 37.5754 75.0169 38.5684 75.0169C39.3221 75.0169 39.7855 74.5891 39.7703 73.9577C39.768 73.8099 39.7345 73.6642 39.6717 73.5303C39.609 73.3965 39.5186 73.2775 39.4064 73.1812C39.2942 73.0849 39.1629 73.0135 39.0211 72.9718C38.8792 72.9301 38.7302 72.919 38.5837 72.9392C36.618 72.9392 34.6524 72.9392 32.6867 72.9392C31.933 72.9392 31.4696 73.3619 31.4849 73.9933C31.488 74.1404 31.522 74.2851 31.5847 74.4182C31.6474 74.5513 31.7373 74.6697 31.8488 74.7657C31.9602 74.8618 32.0905 74.9333 32.2314 74.9757C32.3722 75.0181 32.5204 75.0304 32.6663 75.0118C33.6186 75.0373 34.5913 75.0322 35.5639 75.0322L35.5843 75.0169ZM43.7525 64.002L38.3393 70.8768C39.2916 70.8768 40.1063 70.8768 40.916 70.8768C41.0622 70.8618 41.1989 70.7971 41.3031 70.6934C42.2141 69.8533 42.9116 68.8079 43.3376 67.6442C43.7636 66.4804 43.9058 65.2318 43.7525 64.002V64.002Z" fill="#FFC700"/>
<path d="M67.3866 66.4718C67.3866 63.1414 67.4579 59.8109 67.356 56.4856C67.2526 54.9435 67.0329 53.4114 66.6991 51.9024C65.8418 47.1379 65.3768 42.3111 65.3089 37.4705C65.2999 37.0644 65.2207 36.663 65.0746 36.284C64.1376 33.8905 63.1751 31.5124 62.2229 29.1546C61.3521 26.9751 61.9122 25.1163 63.939 23.9145C69.0721 20.8591 74.2206 20.9151 79.313 24.0214C81.1259 25.1316 81.6963 27.0005 80.9171 28.9764C79.9445 31.4462 78.9514 33.9058 77.9737 36.3756C77.8548 36.65 77.7841 36.9429 77.7649 37.2414C77.7002 43.2337 77.0366 49.2045 75.784 55.0648C75.7184 55.4002 75.6876 55.7415 75.6923 56.0833C75.6923 63.0633 75.6923 70.045 75.6923 77.0284C75.7085 78.1277 75.2873 79.1885 74.5214 79.9774C74.1421 80.368 73.6897 80.6801 73.1898 80.8958C72.69 81.1115 72.1525 81.2267 71.6082 81.2347C70.5088 81.2509 69.448 80.8297 68.6591 80.0638C67.8703 79.2979 67.418 78.25 67.4018 77.1506C67.3713 73.5604 67.3866 70.0161 67.3866 66.4718ZM73.8437 35.5914C74.5159 35.5914 75.0965 35.622 75.677 35.5914C75.7839 35.5741 75.8854 35.5325 75.9737 35.4698C76.062 35.4071 76.1347 35.325 76.1862 35.2298C77.147 32.8704 78.0942 30.5075 79.0278 28.1412C79.2347 27.7155 79.2669 27.2257 79.1175 26.7766C78.9681 26.3275 78.649 25.9546 78.2283 25.7376C76.2342 24.4401 73.9048 23.7529 71.5257 23.7601C69.1467 23.7673 66.8214 24.4688 64.8353 25.7783C64.4415 25.9966 64.1443 26.3551 64.0028 26.7826C63.8612 27.21 63.8857 27.675 64.0714 28.0852C65.0033 30.4735 65.9658 32.8568 66.9333 35.2146C66.9894 35.3623 67.1676 35.5609 67.2949 35.571C67.9315 35.6067 68.568 35.571 69.2555 35.571L68.5171 31.8587C68.3643 31.0795 68.6597 30.5194 69.2962 30.4022C69.9328 30.2851 70.3758 30.662 70.5337 31.4207C70.7934 32.6633 71.0429 33.916 71.2975 35.1585C71.3546 35.3049 71.4355 35.4409 71.5369 35.5609C71.6336 35.4234 71.7864 35.3011 71.817 35.1484C72.0818 33.9262 72.3262 32.6938 72.5757 31.4716C72.7387 30.6721 73.2123 30.2749 73.8386 30.4022C74.465 30.5295 74.7604 31.0846 74.6025 31.874C74.3428 33.0961 74.1035 34.303 73.8437 35.5914V35.5914ZM73.8437 54.2755C74.297 51.495 74.7451 48.7757 75.2034 45.9697C74.3275 45.9697 73.5535 45.9697 72.7845 45.9697C72.0156 45.9697 71.542 45.5827 71.5216 44.9513C71.5012 44.3198 71.985 43.8869 72.7845 43.8819H75.3817C75.4886 41.7889 75.5955 39.7519 75.7025 37.6997H67.3509C67.4477 39.4718 67.4477 41.2032 67.6565 42.9092C68.1148 46.5706 68.6749 50.2168 69.2147 53.863C69.2506 53.9573 69.3094 54.0412 69.3859 54.107C69.4624 54.1728 69.5541 54.2184 69.6527 54.2398C71.0124 54.2856 72.372 54.2755 73.8641 54.2755H73.8437ZM69.5254 56.3634C69.5005 56.4154 69.4817 56.47 69.4693 56.5263C69.4693 63.4011 69.4693 70.2741 69.4693 77.1455C69.4668 77.1879 69.4668 77.2304 69.4693 77.2728C69.5208 77.7609 69.7405 78.216 70.0908 78.5598C70.4411 78.9036 70.9002 79.1148 71.3892 79.157C71.8788 79.1898 72.3641 79.0482 72.7593 78.7574C73.1545 78.4666 73.434 78.0453 73.5484 77.5682C73.6021 77.2709 73.6226 76.9686 73.6095 76.6668C73.6095 70.1451 73.6095 63.6184 73.6095 57.0865V56.3634H69.5254Z" fill="#EB4648"/>
<path d="M55.3226 62.4997V52.5288C55.3226 52.2691 55.3226 52.0196 55.3226 51.7497C55.3453 51.4087 55.4434 51.0771 55.6099 50.7787C55.7764 50.4804 56.0071 50.2227 56.2853 50.0244C56.5636 49.8261 56.8824 49.692 57.2188 49.632C57.5551 49.5719 57.9006 49.5873 58.2303 49.6771C59.0196 49.8909 59.7988 50.1557 60.5626 50.446C61.4669 50.7696 62.2475 51.3676 62.7953 52.1564C63.3431 52.9453 63.6307 53.8855 63.6181 54.8458C63.6181 57.3921 63.6181 59.9383 63.6181 62.5354C64.4787 62.6983 64.6671 63.2738 64.6366 64.0631C64.6366 69.3185 64.6366 74.5722 64.6366 79.8241C64.6366 80.9343 64.3158 81.2602 63.2209 81.2602H55.6536C54.6351 81.2602 54.2837 80.919 54.2837 79.9056V64.002C54.2837 63.0599 54.4059 62.8766 55.3226 62.4997ZM62.5385 79.1519V68.8551H56.392V79.1519H62.5385ZM57.3952 62.5303H61.5404C61.5404 59.8721 61.5709 57.2597 61.5404 54.6523C61.5404 54.1736 61.3941 53.7063 61.121 53.3131C60.848 52.9199 60.4612 52.6196 60.0127 52.4524C59.4016 52.1978 58.7447 52.0348 58.1285 51.7904C57.6192 51.5867 57.4156 51.7089 57.4308 52.2996C57.4308 53.42 57.4308 54.5403 57.4308 55.6657L57.3952 62.5303ZM62.5538 64.6997H56.4123V66.6959H62.5538V64.6997Z" fill="#EB4648"/>
<path d="M51.1722 24.3881C51.0336 24.6326 50.8623 24.857 50.663 25.0552C50.2572 25.3767 49.8283 25.6677 49.3797 25.926C48.3516 26.5349 47.5356 27.4451 47.0423 28.5333C46.9742 28.7624 46.8367 28.9648 46.6488 29.1125C46.461 29.2602 46.2319 29.3461 45.9932 29.3583C45.753 29.3554 45.5202 29.2751 45.3293 29.1292C45.1385 28.9833 44.9998 28.7797 44.934 28.5486C44.328 27.1278 43.1669 26.2519 41.904 25.4626C41.3948 25.1418 40.7379 24.8821 40.8041 24.0928C40.8703 23.3034 41.5272 23.2169 42.067 22.9622C43.3596 22.3754 44.3694 21.3035 44.878 19.9781C45.0919 19.4688 45.3465 18.9851 46.0034 19.0004C46.6604 19.0156 46.8742 19.4536 47.0779 19.9628C47.3515 20.6806 47.7751 21.3317 48.3205 21.8727C48.8658 22.4136 49.5203 22.832 50.2403 23.0997C50.5212 23.1726 50.768 23.3411 50.9381 23.5762C51.1082 23.8114 51.191 24.0985 51.1722 24.3881V24.3881ZM47.7399 24.4849L46.0187 22.5243L44.16 24.4238L45.9881 26.1246L47.7399 24.4849Z" fill="#FFC700"/>
<path d="M53.4893 28.3144C53.6573 28.4824 54.0749 28.7116 54.2073 29.0477C54.5066 29.848 54.975 30.5743 55.5805 31.1772C56.186 31.78 56.9144 32.2452 57.716 32.5411C58.6174 32.8975 58.6886 33.8498 57.8993 34.4253C57.4817 34.7308 57.0489 35.0211 56.6109 35.291C55.605 35.8873 54.8041 36.7753 54.3142 37.8372C54.0953 38.3464 53.805 38.6978 53.2143 38.6825C52.9779 38.6643 52.7531 38.5732 52.5707 38.4218C52.3882 38.2704 52.2573 38.0661 52.1958 37.8372C51.5898 36.4418 50.444 35.5812 49.2015 34.7817C48.6922 34.4609 48.0353 34.2063 48.0811 33.4221C48.127 32.6378 48.8246 32.5156 49.3797 32.2508C50.6864 31.6444 51.7005 30.5462 52.2009 29.1953C52.2859 28.9254 52.4591 28.6918 52.6927 28.532C52.9263 28.3722 53.2069 28.2956 53.4893 28.3144ZM51.4523 33.7887L53.255 35.4692L54.9966 33.8345L53.2703 31.8587L51.4523 33.7887Z" fill="#FFC700"/>
<path d="M42.0568 34.5373C42.23 34.7003 42.6526 34.9244 42.785 35.2605C43.0832 36.0612 43.5505 36.7882 44.1551 37.3919C44.7598 37.9957 45.4875 38.4619 46.2886 38.7589C47.2256 39.1307 47.2816 40.083 46.4465 40.6788C46.0289 40.9792 45.596 41.2695 45.1581 41.5445C44.1682 42.1453 43.3848 43.0335 42.9123 44.0907C42.6883 44.5694 42.4031 44.9564 41.8175 44.9513C41.2318 44.9462 40.9619 44.5439 40.743 44.0652C40.2701 43.0398 39.5047 42.177 38.543 41.5852C38.0847 41.3001 37.6366 40.9996 37.1986 40.689C36.3737 40.0982 36.4806 39.1918 37.3922 38.7589C37.9242 38.5284 38.4353 38.2524 38.9199 37.934C39.784 37.3125 40.435 36.4392 40.7837 35.4336C40.8629 35.162 41.032 34.9254 41.2633 34.7625C41.4946 34.5997 41.7744 34.5203 42.0568 34.5373V34.5373ZM41.8531 41.7024L43.6558 40.0066L41.899 38.0817L40.0453 40.0066L41.8531 41.7024Z" fill="#FFC700"/>
</svg>
