<svg width="100" height="100" viewBox="0 0 100 100" fill="none" xmlns="http://www.w3.org/2000/svg">
<path d="M16 33.7407C16.0942 33.6151 16.157 33.4371 16.2774 33.3848C16.6439 33.2277 17.0836 32.9451 17.3924 33.0445C17.7013 33.144 18.0153 33.568 18.2247 33.9397C18.3451 34.1386 18.2666 34.4631 18.2666 34.7249V77.7117C18.2666 80.3866 19.5857 81.711 22.2606 81.711H48.8788C48.8788 80.8682 48.8788 80.0621 48.8788 79.2559C48.8788 79.1146 48.6066 78.9366 48.4234 78.8686C45.6636 77.767 42.721 77.1952 39.7496 77.183C33.9012 77.1929 28.0745 77.8957 22.3915 79.2769C21.109 79.5909 20.5541 79.1565 20.5541 77.8269C20.5541 61.4773 20.5541 45.1313 20.5541 28.7888C20.5541 27.7418 20.7897 27.4487 21.8366 27.1817C27.7046 25.7129 33.7319 24.9761 39.781 24.9884C43.2879 24.9933 46.7579 25.7054 49.9833 27.0823C50.3708 27.2066 50.7034 27.4611 50.9248 27.8027C51.1461 28.1442 51.2425 28.5518 51.1977 28.9563C51.1768 42.8839 51.1768 56.815 51.1977 70.7496V71.7913L51.9515 71.3935C57.7178 68.1052 63.7397 65.2868 69.9587 62.9657C70.1263 62.928 70.2734 62.8282 70.3705 62.6864C70.4676 62.5447 70.5075 62.3714 70.4821 62.2015C70.4821 47.8935 70.4821 33.5854 70.4821 19.2774C70.4821 19.1466 70.4821 19.0157 70.4821 18.754C70.1995 18.8587 69.9587 18.9424 69.7283 19.0419C64.5131 21.2593 59.4613 23.8429 54.6107 26.7734C54.3867 26.915 54.1542 27.0426 53.9145 27.1556C53.6644 27.2836 53.3748 27.311 53.1051 27.2321C52.8355 27.1533 52.6062 26.9741 52.4645 26.7316C52.3865 26.6147 52.3329 26.4834 52.3067 26.3454C52.2806 26.2075 52.2825 26.0656 52.3123 25.9284C52.3421 25.7911 52.3992 25.6613 52.4802 25.5466C52.5612 25.4319 52.6644 25.3346 52.7838 25.2606C53.2372 24.9442 53.7072 24.6524 54.1919 24.3864C59.4907 21.2214 65.0324 18.482 70.7648 16.1942C72.0316 15.7074 72.7121 16.1366 72.7121 17.4715C72.7121 32.7078 72.7121 47.9458 72.7121 63.1856C72.7121 64.1645 72.5289 64.4524 71.6233 64.756C64.4204 67.2948 57.6416 70.7287 51.0302 74.5186C49.6535 75.3038 48.884 74.8588 48.884 73.2518C48.884 58.8565 48.884 44.4613 48.884 30.066C48.9268 29.7814 48.8574 29.4913 48.6904 29.2569C48.5234 29.0225 48.2719 28.8622 47.9889 28.8097C45.0097 27.7438 41.8608 27.2311 38.6974 27.2969C33.6499 27.4193 28.6251 28.0169 23.6897 29.0819C23.0301 29.2232 22.7736 29.4222 22.7736 30.1707C22.805 45.4279 22.805 60.6887 22.7736 75.9529V76.8375C23.8677 76.6177 24.8937 76.3978 25.9144 76.2094C30.7346 75.2957 35.6344 74.8678 40.54 74.9321C43.5965 75.0249 46.6111 75.6686 49.4389 76.8323C49.8391 77.0074 50.292 77.0186 50.7004 76.8637C55.3578 75.2522 60.2977 74.6196 65.2108 75.0054C69.2527 75.2606 73.266 75.8542 77.2086 76.7799C77.2086 76.513 77.24 76.2826 77.24 76.0523C77.24 60.7253 77.24 45.4 77.24 30.0765C77.24 29.5164 77.1406 29.2075 76.5229 29.1866C76.1906 29.1611 75.8649 29.0797 75.5597 28.9458C75.3136 28.865 75.1076 28.6931 74.984 28.4654C74.8604 28.2377 74.8286 27.9713 74.8949 27.7209C74.9073 27.5921 74.9452 27.467 75.0062 27.353C75.0673 27.2389 75.1503 27.138 75.2506 27.0562C75.3509 26.9744 75.4664 26.9134 75.5904 26.8765C75.7145 26.8396 75.8446 26.8277 75.9733 26.8415C76.9167 26.9428 77.8489 27.1302 78.7581 27.4016C79.0669 27.4958 79.2816 27.9931 79.4648 28.3438C79.5234 28.5569 79.5341 28.7804 79.4962 28.9982V77.6803C79.4962 77.8373 79.4962 77.9891 79.4962 78.1462C79.5106 78.341 79.4757 78.5363 79.3946 78.714C79.3136 78.8918 79.189 79.0462 79.0325 79.1631C78.876 79.28 78.6925 79.3555 78.4991 79.3827C78.3056 79.4099 78.1085 79.3879 77.9258 79.3187C76.2612 78.9471 74.6175 78.5021 72.9476 78.1881C68.7227 77.383 64.4212 77.0511 60.1228 77.1987C57.1821 77.3701 54.2818 77.966 51.5118 78.968C51.4218 79.0105 51.3434 79.0741 51.2832 79.1533C51.223 79.2326 51.1829 79.3253 51.1663 79.4234C51.1244 80.1458 51.1663 80.8734 51.1663 81.6848H77.9153C80.4122 81.6848 81.7837 80.3133 81.7837 77.8269C81.7837 63.4525 81.7837 49.0782 81.7837 34.7039C81.7654 34.439 81.7654 34.1732 81.7837 33.9082C81.8166 33.6408 81.9451 33.3943 82.1457 33.2143C82.3462 33.0344 82.6051 32.9331 82.8745 32.9293C83.1439 32.9255 83.4056 33.0193 83.6112 33.1935C83.8168 33.3677 83.9523 33.6104 83.9927 33.8768C84.0241 34.1408 84.0346 34.4069 84.0241 34.6725C84.0241 49.0259 83.998 63.3793 84.0241 77.7274C84.0241 81.0043 81.9931 83.4855 79.0669 83.8886C79.0261 83.9024 78.9873 83.9218 78.9518 83.9462H21.0514C20.0317 83.7628 19.0648 83.3571 18.2195 82.7579C17.0287 81.7901 16.2381 80.4159 16 78.9V33.7407Z" fill="#EB4648"/>
<path d="M37.0485 56.6632L42.8589 57.2652C43.0133 57.2876 43.1657 57.3226 43.3144 57.3699C44.0786 57.5688 44.4555 58.0975 44.3037 58.7571C44.1519 59.4166 43.597 59.6731 42.8537 59.5737C41.5398 59.4062 40.2364 59.1968 38.9068 59.113C35.7192 58.9618 32.5259 59.2489 29.4164 59.9663C29.2227 60.0081 29.029 60.0605 28.8353 60.0971C28.688 60.1454 28.5322 60.1625 28.3778 60.1471C28.2235 60.1318 28.0741 60.0844 27.9391 60.0081C27.8041 59.9317 27.6865 59.828 27.5939 59.7037C27.5013 59.5793 27.4356 59.437 27.401 59.2858C27.3592 59.1352 27.3504 58.9774 27.3752 58.8232C27.4001 58.6689 27.458 58.5218 27.545 58.3921C27.6321 58.2623 27.7461 58.1529 27.8794 58.0713C28.0126 57.9897 28.162 57.938 28.3171 57.9195C29.323 57.6568 30.3416 57.4454 31.3689 57.2861C33.1016 57.0558 34.8395 56.904 37.0485 56.6632Z" fill="#FFC700"/>
<path d="M43.0945 66.342C41.8173 66.2007 40.5505 65.9966 39.2732 65.918C35.8203 65.7404 32.3598 66.0595 28.9976 66.8655C28.1496 67.0592 27.5738 66.787 27.4272 66.1274C27.2807 65.4679 27.6209 64.8816 28.4742 64.6774C33.1434 63.4967 38.0047 63.2829 42.7595 64.0493C43.0222 64.0869 43.2814 64.1464 43.5342 64.2273C43.8009 64.3045 44.0287 64.4794 44.1723 64.717C44.3159 64.9547 44.3646 65.2377 44.3089 65.5097C44.2568 65.7804 44.1001 66.0196 43.8727 66.1754C43.6454 66.3313 43.3657 66.3911 43.0945 66.342V66.342Z" fill="#FFC700"/>
<path d="M37.6819 36.2481C39.4093 36.4575 41.3199 36.6721 43.2201 36.9391C43.3879 36.9422 43.553 36.9825 43.7033 37.0571C43.8537 37.1316 43.9857 37.2386 44.0898 37.3702C44.1939 37.5018 44.2676 37.6549 44.3055 37.8184C44.3433 37.9819 44.3445 38.1518 44.3089 38.3158C44.2734 38.4738 44.2051 38.6226 44.1084 38.7525C44.0117 38.8825 43.8889 38.9906 43.7478 39.0701C43.6066 39.1495 43.4504 39.1984 43.2892 39.2137C43.128 39.2289 42.9653 39.2102 42.8118 39.1586C38.1896 38.2216 33.6146 38.6351 29.0604 39.6349C28.7637 39.7171 28.452 39.7297 28.1496 39.6716C27.911 39.6095 27.7019 39.4653 27.5592 39.2642C27.4165 39.0631 27.3494 38.8181 27.3696 38.5723C27.3719 38.3018 27.4733 38.0415 27.6547 37.8408C27.8361 37.6401 28.0848 37.513 28.3537 37.4835C29.453 37.2427 30.5523 36.96 31.6725 36.8344C33.5989 36.5936 35.5409 36.4523 37.6819 36.2481Z" fill="#FFC700"/>
<path d="M37.2422 49.8058C39.1686 50.0257 41.0879 50.249 43.0003 50.4759C43.1796 50.4976 43.3554 50.5415 43.5238 50.6067C43.7935 50.6841 44.0234 50.8616 44.1665 51.1029C44.3095 51.3443 44.3549 51.6312 44.2933 51.9049C44.2458 52.171 44.0972 52.4084 43.8786 52.5674C43.6601 52.7265 43.3885 52.7948 43.1207 52.7582C42.4873 52.7006 41.8592 52.5436 41.2258 52.4598C37.2505 52.0188 33.2289 52.2667 29.3379 53.1927C29.2542 53.1927 29.1704 53.2398 29.0814 53.2607C28.1758 53.4492 27.5948 53.1822 27.4273 52.5017C27.2598 51.8212 27.6628 51.2454 28.5789 51.036C31.4283 50.3905 34.3257 49.979 37.2422 49.8058V49.8058Z" fill="#FFC700"/>
<path d="M43.0736 45.9374C41.9534 45.8066 40.8384 45.6443 39.7182 45.5448C36.1817 45.293 32.6275 45.5879 29.1808 46.419C29.0971 46.419 29.0133 46.4661 28.9243 46.4818C28.1182 46.6284 27.5581 46.3353 27.4011 45.6914C27.244 45.0476 27.6157 44.4508 28.448 44.2624C29.2803 44.0739 30.0446 43.9064 30.8507 43.7703C34.9337 43.0846 39.022 42.8752 43.1155 43.7075C43.2469 43.7284 43.3764 43.7599 43.5028 43.8017C43.7859 43.8714 44.0307 44.0488 44.1851 44.296C44.3395 44.5433 44.3915 44.8411 44.3299 45.1261C44.302 45.2625 44.2471 45.392 44.1685 45.507C44.0899 45.622 43.9892 45.7201 43.8722 45.7957C43.7552 45.8713 43.6243 45.9227 43.4872 45.947C43.35 45.9714 43.2094 45.9681 43.0736 45.9374V45.9374Z" fill="#FFC700"/>
<path d="M67.0273 56.7103C67.0076 56.9887 66.9026 57.2541 66.7264 57.4705C66.5503 57.6869 66.3117 57.8437 66.0432 57.9195C63.4677 59.0258 60.8958 60.1425 58.3273 61.2697C57.6416 61.5733 56.982 61.945 56.2963 62.2486C56.1638 62.3297 56.016 62.3829 55.8622 62.405C55.7084 62.427 55.5517 62.4174 55.4017 62.3767C55.2517 62.336 55.1116 62.2651 54.99 62.1684C54.8684 62.0716 54.7679 61.9511 54.6945 61.8141C54.6182 61.6704 54.5738 61.5119 54.5644 61.3495C54.555 61.1871 54.5807 61.0245 54.6398 60.873C54.699 60.7214 54.7901 60.5844 54.907 60.4713C55.024 60.3582 55.164 60.2716 55.3174 60.2175C58.6152 58.7274 61.9305 57.2547 65.2632 55.7995C66.0537 55.454 66.6242 55.6739 66.9121 56.2759C66.9613 56.4176 66.9998 56.5628 67.0273 56.7103V56.7103Z" fill="#FFC700"/>
<path d="M55.5111 42.1005C55.2389 41.8492 54.7939 41.6293 54.6997 41.3048C54.6646 40.8921 54.7367 40.4774 54.9091 40.1008C54.951 39.9647 55.1708 39.8653 55.3279 39.7972C58.5943 38.3315 61.8624 36.8728 65.1323 35.4211C65.3914 35.2945 65.6763 35.23 65.9646 35.2326C66.2125 35.2374 66.4506 35.3301 66.6365 35.494C66.8225 35.6579 66.9443 35.8825 66.9802 36.1277C67.0453 36.3673 67.0199 36.6225 66.9089 36.8446C66.7978 37.0667 66.6089 37.2401 66.3782 37.3317C65.8181 37.5882 65.2161 37.7505 64.6507 38.007C61.9758 39.2214 59.3114 40.4568 56.6365 41.6712C56.3329 41.823 55.9927 41.9539 55.5111 42.1005Z" fill="#FFC700"/>
<path d="M67.1268 50.1042C66.8546 50.3869 66.6033 50.8318 66.2526 50.9993C62.96 52.5069 59.6465 53.9674 56.3329 55.4331C55.5896 55.7629 54.9615 55.5744 54.6893 54.9777C54.6174 54.838 54.5762 54.6847 54.5683 54.5279C54.5604 54.371 54.5861 54.2143 54.6435 54.0682C54.701 53.922 54.7889 53.7898 54.9015 53.6804C55.0141 53.5709 55.1488 53.4868 55.2965 53.4334C58.6152 51.9294 61.9427 50.4462 65.2789 48.984C65.5301 48.8319 65.8306 48.7834 66.1168 48.8489C66.4031 48.9143 66.6526 49.0886 66.8127 49.3347C66.9415 49.5807 67.0466 49.8384 67.1268 50.1042V50.1042Z" fill="#FFC700"/>
<path d="M67.0273 29.7834C66.865 29.9613 66.6294 30.4063 66.2682 30.5738C62.9547 32.0918 59.6202 33.568 56.291 35.0442C56.1566 35.1225 56.0076 35.1727 55.8532 35.1916C55.6987 35.2105 55.542 35.1978 55.3927 35.1542C55.2433 35.1106 55.1044 35.0371 54.9843 34.9381C54.8643 34.8391 54.7657 34.7166 54.6945 34.5783C54.6232 34.4344 54.5834 34.277 54.5777 34.1165C54.5721 33.956 54.6006 33.7962 54.6616 33.6476C54.7225 33.499 54.8143 33.3651 54.931 33.2548C55.0477 33.1445 55.1866 33.0604 55.3383 33.0079C58.6361 31.516 61.9444 30.0346 65.2841 28.5899C66.174 28.1763 67.0273 28.6789 67.0273 29.7834Z" fill="#FFC700"/>
<path d="M55.5111 48.9107C55.2336 48.649 54.7939 48.4239 54.7049 48.0994C54.6716 47.6863 54.7456 47.2716 54.9195 46.8954C54.9509 46.7802 55.1499 46.6912 55.286 46.6284C58.5053 45.1732 61.7193 43.7023 64.9596 42.2889C66.0484 41.8126 66.6975 42.0481 66.9592 42.8124C67.2209 43.5766 66.7708 43.964 65.7081 44.4299C62.693 45.7438 59.6988 47.11 56.6941 48.4553C56.3643 48.6071 56.0345 48.7223 55.5111 48.9107Z" fill="#FFC700"/>
</svg>
