<svg width="100" height="100" viewBox="0 0 100 100" fill="none" xmlns="http://www.w3.org/2000/svg">
<path d="M55.8446 72.1311C57.0722 72.1311 58.2801 72.1311 59.488 72.1311C59.7439 72.1244 59.9997 72.1477 60.2503 72.2004C60.4724 72.2438 60.6695 72.3706 60.8011 72.5547C60.9327 72.7388 60.9889 72.9662 60.9582 73.1904C60.9537 73.416 60.8648 73.6317 60.7089 73.7948C60.5531 73.958 60.3418 74.0568 60.1166 74.0716C59.9519 74.0844 59.7864 74.0844 59.6216 74.0716H40.7117C40.5685 74.1071 40.4192 74.1102 40.2746 74.0806C40.1301 74.051 39.994 73.9895 39.8763 73.9005C39.7586 73.8116 39.6623 73.6974 39.5944 73.5665C39.5265 73.4355 39.4887 73.291 39.4838 73.1436C39.4789 72.9961 39.507 72.8494 39.5661 72.7142C39.6251 72.5791 39.7137 72.4588 39.8252 72.3622C39.9367 72.2657 40.0684 72.1952 40.2107 72.1561C40.3529 72.117 40.5021 72.1101 40.6473 72.136C41.3701 72.0915 42.0928 72.136 42.8205 72.136C43.469 72.136 44.1224 72.136 44.8006 72.136V67.0818H18.6682C17.1832 67.0818 17 66.8838 17 65.4483C17 51.1817 17 36.915 17 22.6484C17 21.2129 17.2178 21 18.6732 21H82.0066C83.4471 21 83.66 21.2178 83.66 22.6682V65.4681C83.66 66.864 83.4422 67.0818 82.0363 67.0818H77.3286V67.8986C77.3286 70.7945 77.3286 73.6904 77.3286 76.5863C77.3286 78.3783 76.5515 79.1604 74.7743 79.1654C71.9725 79.1654 69.1673 79.1654 66.3589 79.1654C64.5917 79.1654 63.7996 78.3635 63.7996 76.5913V67.1214H55.8446V72.1311ZM81.6651 23.0197H19.0197V59.7307H63.8244C63.8244 58.2209 63.8244 56.7606 63.8244 55.33C63.8049 55.0361 63.8471 54.7414 63.9484 54.4648C64.0497 54.1883 64.2078 53.936 64.4126 53.7243C64.6173 53.5126 64.8641 53.3461 65.1371 53.2356C65.4101 53.125 65.7032 53.0729 65.9975 53.0825C69.0568 53.0561 72.116 53.0561 75.1753 53.0825C75.4517 53.074 75.727 53.1204 75.9854 53.219C76.2437 53.3177 76.4799 53.4667 76.6802 53.6573C76.8805 53.848 77.0409 54.0765 77.1523 54.3296C77.2636 54.5828 77.3235 54.8555 77.3286 55.1319C77.3583 55.5032 77.3286 55.8794 77.3286 56.2507V59.7159H81.6601L81.6651 23.0197ZM65.7698 77.1259C65.8932 77.1589 66.019 77.1821 66.146 77.1952C69.0419 77.1952 71.9378 77.1952 74.8288 77.1952C75.4228 77.1952 75.3733 76.8586 75.3733 76.4724C75.3733 69.5652 75.3733 62.658 75.3733 55.7507C75.3733 55.1814 75.2347 54.9884 74.6357 54.9933C71.9774 55.023 69.3142 55.028 66.6559 54.9933C65.9728 54.9933 65.7451 55.127 65.7451 55.8646C65.7797 62.6811 65.7451 69.4926 65.7451 76.3091L65.7698 77.1259ZM63.7897 61.7801H19.0197V65.077H63.7798L63.7897 61.7801ZM53.81 67.1412H46.8797V72.0667H53.81V67.1412ZM77.388 65.077H81.6651V61.79H77.388V65.077Z" fill="#EB4648"/>
<path d="M70.5715 74.0666C69.8861 74.0666 69.2162 73.8634 68.6463 73.4827C68.0765 73.1019 67.6324 72.5607 67.3701 71.9275C67.1078 71.2944 67.0392 70.5976 67.1729 69.9254C67.3066 69.2533 67.6366 68.6358 68.1212 68.1512C68.6059 67.6666 69.2233 67.3366 69.8955 67.2029C70.5677 67.0692 71.2644 67.1378 71.8976 67.4001C72.5307 67.6623 73.0719 68.1065 73.4527 68.6763C73.8334 69.2462 74.0367 69.9161 74.0367 70.6015C74.0406 71.0576 73.9537 71.51 73.781 71.9322C73.6082 72.3544 73.3531 72.738 73.0306 73.0605C72.708 73.3831 72.3244 73.6382 71.9022 73.8109C71.48 73.9837 71.0277 74.0706 70.5715 74.0666V74.0666ZM70.5715 69.0817C70.3736 69.0771 70.1767 69.1121 69.9925 69.1847C69.8083 69.2572 69.6405 69.3659 69.4989 69.5043C69.3573 69.6426 69.2448 69.8079 69.168 69.9904C69.0912 70.1729 69.0517 70.3688 69.0518 70.5668C69.0459 70.8674 69.1296 71.1629 69.2922 71.4158C69.4548 71.6687 69.6889 71.8674 69.9649 71.9868C70.2408 72.1061 70.546 72.1407 70.8416 72.086C71.1372 72.0314 71.4099 71.89 71.6249 71.6799C71.84 71.4698 71.9876 71.2004 72.049 70.9061C72.1105 70.6119 72.083 70.3059 71.97 70.0273C71.8571 69.7487 71.6638 69.51 71.4147 69.3416C71.1657 69.1732 70.8721 69.0828 70.5715 69.0817Z" fill="#FFC700"/>
<path d="M68.4627 60.2752C68.0247 60.119 67.6163 59.8897 67.2548 59.597C67.1815 59.5043 67.1285 59.3972 67.0992 59.2826C67.0698 59.1681 67.0647 59.0487 67.0843 58.9321C67.1039 58.8156 67.1477 58.7044 67.2129 58.6057C67.278 58.5071 67.3632 58.4232 67.4627 58.3595C67.7792 58.1897 68.1342 58.1046 68.4933 58.1124C68.8524 58.1202 69.2033 58.2206 69.5121 58.404C69.6027 58.4707 69.6788 58.555 69.7358 58.6519C69.7929 58.7488 69.8297 58.8562 69.844 58.9677C69.8584 59.0792 69.8499 59.1925 69.8193 59.3007C69.7886 59.4088 69.7363 59.5096 69.6656 59.597C69.3015 59.883 68.8958 60.1117 68.4627 60.2752V60.2752Z" fill="#FFC700"/>
<path d="M68.433 64.577C67.5815 64.577 67.1261 64.3246 67.136 63.7454C67.136 63.4236 67.3489 62.8692 67.5518 62.8246C68.1492 62.6984 68.7663 62.6984 69.3636 62.8246C69.5666 62.8642 69.7844 63.4137 69.7894 63.7355C69.7993 64.3295 69.329 64.577 68.433 64.577Z" fill="#FFC700"/>
<path d="M72.611 60.0921C72.1556 60.0921 71.5715 60.0921 71.423 59.4931C71.3943 59.2988 71.4045 59.1007 71.453 58.9104C71.5014 58.7201 71.5871 58.5412 71.7051 58.3843C72.012 57.9833 73.3338 57.9783 73.6506 58.3843C73.883 58.7047 73.9904 59.099 73.9525 59.4931C73.903 59.9287 73.4724 60.0921 72.611 60.0921Z" fill="#FFC700"/>
<path d="M72.6953 64.6463C72.3587 64.5572 71.9132 64.5622 71.735 64.3493C71.6092 64.1987 71.5157 64.0239 71.4604 63.8357C71.405 63.6475 71.3889 63.45 71.4132 63.2553C71.5617 62.6217 72.1755 62.6118 72.73 62.6118C73.2844 62.6118 73.8438 62.6761 73.9626 63.2751C73.9796 63.4705 73.9577 63.6674 73.8983 63.8543C73.8388 64.0412 73.7429 64.2145 73.616 64.3641C73.4725 64.5671 73.0319 64.5572 72.6953 64.6463Z" fill="#FFC700"/>
</svg>
