<svg width="100" height="100" viewBox="0 0 100 100" fill="none" xmlns="http://www.w3.org/2000/svg">
<path d="M85.2444 24.5973V62.1822C85.2123 62.241 85.1482 62.2945 85.1428 62.3533C84.6669 65.8455 81.3619 68.8029 77.2975 68.7441C71.6662 68.6531 66.0295 68.7173 60.3929 68.7173H59.5212C60.2324 72.2844 60.9276 75.7819 61.6122 79.2794C61.6977 79.6965 61.9598 79.6912 62.2806 79.6912C63.9706 79.6912 65.6658 79.6912 67.3558 79.6912C67.8906 79.6912 68.3772 79.6912 68.8853 79.6912C69.2399 79.6855 69.5822 79.8209 69.8369 80.0676C70.0917 80.3143 70.238 80.6522 70.2436 81.0067C70.2493 81.3613 70.1139 81.7036 69.8672 81.9584C69.6205 82.2131 69.2826 82.3594 68.9281 82.3651C68.6733 82.3785 68.418 82.3785 68.1633 82.3651H31.0811C30.8025 82.3714 30.5238 82.3589 30.2469 82.3277C29.9672 82.3031 29.7044 82.1836 29.5021 81.989C29.2997 81.7945 29.17 81.5365 29.1345 81.2581C28.9473 80.3276 29.5891 79.6537 30.7014 79.6537C32.7871 79.6537 34.8781 79.6537 36.9638 79.6537C37.2793 79.6537 37.5467 79.6537 37.6269 79.2419C38.3168 75.7444 39.012 72.2469 39.7233 68.6799H38.8516C33.1472 68.6799 27.4428 68.6799 21.7384 68.6799C20.5905 68.7093 19.451 68.4765 18.4066 67.9992C17.3622 67.522 16.4404 66.8128 15.7113 65.9257C14.8592 64.8269 14.2734 63.5455 14 62.1822V24.5973C14.0428 24.4476 14.1016 24.2978 14.1337 24.1374C14.4624 22.4385 15.3695 20.9059 16.7007 19.8003C18.1968 18.5558 20.1047 17.9166 22.0486 18.0087C40.4381 18.0087 58.8295 18.0087 77.2226 18.0087C77.5702 18.0087 77.9232 18.0087 78.2922 18.0355C79.2602 18.1058 80.2049 18.3663 81.0721 18.8022C81.9393 19.2381 82.712 19.8408 83.3459 20.5757C84.3283 21.7215 84.9841 23.1107 85.2444 24.5973V24.5973ZM16.7916 54.9465H82.4635C82.4635 54.7166 82.4635 54.5347 82.4635 54.3529C82.4635 44.8444 82.4635 35.3359 82.4635 25.8273C82.4684 25.3637 82.4218 24.9009 82.3245 24.4476C81.7256 22.0731 79.8805 20.7362 77.2066 20.7362C58.7921 20.7362 40.3775 20.7362 21.963 20.7362C21.4081 20.7258 20.8543 20.7887 20.3159 20.9233C18.0109 21.5383 16.7274 23.3352 16.7274 25.9129C16.7274 33.539 16.7274 41.1686 16.7274 48.8018C16.7274 49.0211 16.7274 49.2457 16.7649 49.5077H17.5831C19.9468 49.5077 22.316 49.5077 24.6797 49.5077C25.6584 49.5077 26.2841 50.0425 26.2841 50.8714C26.2841 51.7004 25.6637 52.2512 24.6316 52.2565C22.7277 52.2565 20.8293 52.2565 18.9254 52.2565H16.7863L16.7916 54.9465ZM16.7916 57.7595C16.7916 59.2141 16.7595 60.5992 16.7916 61.9843C16.8359 62.4233 16.9726 62.848 17.1927 63.2304C18.1874 65.1663 19.8132 65.9632 21.963 65.9578C40.3775 65.9578 58.7903 65.9578 77.2012 65.9578C77.4793 65.9578 77.736 65.9578 78.0355 65.9578C78.661 65.9162 79.2715 65.7483 79.8304 65.4643C80.3892 65.1803 80.8847 64.786 81.287 64.3053C82.993 62.3587 82.3085 60.027 82.4475 57.7916L16.7916 57.7595ZM40.3223 79.6163H58.8794L56.7028 68.7334H42.5202L40.3223 79.6163Z" fill="#EB4648"/>
<path d="M53.0556 46.1386C52.3176 46.914 51.6438 47.6092 50.986 48.3205C50.5207 48.8232 49.9913 49.1761 49.2746 48.9515C48.558 48.7269 48.3869 48.1387 48.2425 47.5076C47.3441 43.5609 46.4296 39.6195 45.5258 35.6728C45.2103 34.293 45.9857 33.4908 47.3654 33.8064C51.4013 34.7191 55.4354 35.6478 59.4677 36.5926C60.8261 36.9135 61.1683 38.09 60.2057 39.0901C59.4677 39.8548 58.6976 40.5928 57.9061 41.3789C58.8313 42.2881 59.7137 43.1437 60.5801 44.0154C61.4464 44.8872 61.4518 45.5824 60.5801 46.4648C59.7084 47.3472 58.9757 48.0691 58.1682 48.8713C57.3606 49.6735 56.6119 49.7323 55.7242 48.8713C54.8364 48.0103 54.0129 47.0851 53.0556 46.1386ZM56.628 38.9189L56.521 38.7211L48.6169 36.9028C49.2479 39.6302 49.8522 42.2507 50.4833 44.962C51.0181 44.4272 51.4085 44.0155 51.8309 43.5983C52.7401 42.6945 53.4353 42.6892 54.3284 43.5983C55.2215 44.5075 56.0504 45.331 56.8847 46.1706L57.874 45.1652C57.013 44.3149 56.136 43.4646 55.2696 42.5929C54.4033 41.7212 54.4193 41.0367 55.2696 40.1971C55.6921 39.7211 56.1681 39.3147 56.6066 38.8922L56.628 38.9189Z" fill="#FFC700"/>
<path d="M54.0664 29.742C53.997 30.0448 53.8815 30.3352 53.7241 30.603C53.1803 31.2306 52.5942 31.8202 51.97 32.3678C51.7185 32.5603 51.4036 32.6507 51.0882 32.6209C50.7729 32.5912 50.4805 32.4435 50.2694 32.2074C50.0448 31.999 49.9053 31.7149 49.8776 31.4098C49.85 31.1047 49.9362 30.8002 50.1196 30.5549C50.6546 29.921 51.2394 29.3308 51.8684 28.7901C52.0522 28.6235 52.2883 28.526 52.5361 28.5143C52.7839 28.5026 53.028 28.5774 53.2267 28.7259C53.5474 29.0287 53.8295 29.37 54.0664 29.742Z" fill="#FFC700"/>
<path d="M48.5205 28.6831C48.5187 29.0553 48.4919 29.4269 48.4403 29.7954C48.3969 30.1091 48.2391 30.3956 47.9973 30.6C47.7554 30.8043 47.4466 30.912 47.1301 30.9025C46.8114 30.9277 46.4955 30.8261 46.2512 30.6199C46.0069 30.4136 45.8538 30.1193 45.8252 29.8008C45.7423 28.999 45.7423 28.1907 45.8252 27.3889C45.8626 27.0737 46.0168 26.784 46.2574 26.5771C46.498 26.3701 46.8075 26.261 47.1248 26.2712C47.4518 26.271 47.7677 26.3897 48.0137 26.6051C48.2596 26.8206 48.4189 27.1182 48.4617 27.4424C48.5045 27.8545 48.5241 28.2687 48.5205 28.6831V28.6831Z" fill="#FFC700"/>
<path d="M44.4936 31.3838C44.2627 31.7543 43.99 32.097 43.6808 32.4052C43.4935 32.5692 43.2531 32.6596 43.0043 32.6596C42.7554 32.6596 42.515 32.5692 42.3277 32.4052C41.6602 31.8393 41.0429 31.2166 40.4827 30.5441C40.3144 30.314 40.2376 30.0295 40.2672 29.7458C40.2969 29.4622 40.4309 29.1997 40.6432 29.0093C41.0282 28.5868 41.6218 28.3141 42.0711 28.6617C42.8548 29.324 43.5927 30.0387 44.2797 30.8009C44.3706 30.8971 44.3385 31.111 44.3653 31.2715L44.4936 31.3838Z" fill="#FFC700"/>
<path d="M44.3545 39.6409C44.3188 39.8323 44.2441 40.0143 44.1352 40.1757C43.5914 40.8033 43.0054 41.3929 42.3811 41.9405C42.1276 42.1292 41.8133 42.2178 41.4985 42.1892C41.1837 42.1606 40.8905 42.0168 40.6752 41.7854C40.4485 41.5783 40.3074 41.294 40.2797 40.9882C40.252 40.6824 40.3396 40.3773 40.5254 40.1329C41.0558 39.4653 41.6644 38.8638 42.3383 38.3414C43.1993 37.7371 44.3492 38.4269 44.3545 39.6409Z" fill="#FFC700"/>
<path d="M40.2901 36.7156C39.9446 36.7343 39.5982 36.7343 39.2527 36.7156C38.9131 36.6949 38.5951 36.5425 38.3664 36.2907C38.1376 36.039 38.0162 35.7079 38.028 35.368C38.019 35.0398 38.1378 34.7209 38.3592 34.4785C38.5807 34.2361 38.8875 34.0891 39.2152 34.0684C39.9754 34.0123 40.7386 34.0123 41.4988 34.0684C41.8259 34.0983 42.1292 34.2525 42.346 34.4992C42.5629 34.7459 42.6769 35.0664 42.6646 35.3947C42.6635 35.722 42.5409 36.0373 42.3206 36.2794C42.1002 36.5215 41.7978 36.6731 41.472 36.7049C41.0784 36.7263 40.6838 36.7263 40.2901 36.7049V36.7156Z" fill="#FFC700"/>
<path d="M30.402 50.8821C30.402 51.241 30.2595 51.5851 30.0057 51.8389C29.752 52.0926 29.4078 52.2351 29.049 52.2351C28.6902 52.2351 28.346 52.0926 28.0923 51.8389C27.8385 51.5851 27.696 51.241 27.696 50.8821C27.696 50.5233 27.8385 50.1791 28.0923 49.9254C28.346 49.6717 28.6902 49.5291 29.049 49.5291C29.4078 49.5291 29.752 49.6717 30.0057 49.9254C30.2595 50.1791 30.402 50.5233 30.402 50.8821V50.8821Z" fill="#FFC700"/>
<path d="M49.6008 64.5674C49.2411 64.5667 48.8851 64.4947 48.5533 64.3556C48.2216 64.2165 47.9207 64.013 47.6681 63.7569C47.4154 63.5008 47.2161 63.1971 47.0815 62.8635C46.947 62.5299 46.8799 62.1729 46.8841 61.8132C46.8898 61.087 47.1837 60.3928 47.7012 59.8833C47.9574 59.6311 48.2609 59.4317 48.5942 59.2967C48.9274 59.1617 49.284 59.0937 49.6436 59.0965C50.0032 59.0993 50.3587 59.1729 50.6898 59.3131C51.0209 59.4533 51.3212 59.6574 51.5735 59.9136C51.8258 60.1698 52.0251 60.4733 52.1601 60.8065C52.2951 61.1398 52.3631 61.4964 52.3603 61.856C52.3589 62.2157 52.2863 62.5716 52.1465 62.9031C52.0068 63.2346 51.8027 63.5351 51.5461 63.7872C51.2895 64.0393 50.9854 64.2381 50.6515 64.372C50.3177 64.5059 49.9605 64.5723 49.6008 64.5674Z" fill="#FFC700"/>
</svg>
