<svg width="100" height="100" viewBox="0 0 100 100" fill="none" xmlns="http://www.w3.org/2000/svg">
<path d="M85.6324 51.6501C85.1762 53.2823 83.9241 54.139 82.5098 54.8234C79.4587 56.2136 76.2526 57.2346 72.9595 57.8649C72.3147 58.0309 71.6592 58.1529 70.9978 58.2298C70.4047 58.2805 70.3185 58.5441 70.3236 59.0663C70.3489 62.0317 70.3236 64.9972 70.3236 67.9576C70.3236 71.7493 70.3236 75.5613 70.3236 79.3328C70.3398 79.9215 70.2094 80.5049 69.9439 81.0306C69.6784 81.5562 69.2863 82.0076 68.8028 82.3439C67.2415 83.5199 65.4115 84.0674 63.5461 84.4678C58.1322 85.6185 52.6474 85.6996 47.1524 85.4817C43.4266 85.3397 39.7159 85.0407 36.1118 84.0319C34.7493 83.638 33.4311 83.1046 32.1781 82.4402C30.8652 81.7609 30.2619 80.6254 30.2721 79.054C30.3278 72.5046 30.2721 65.9553 30.2721 59.4059V58.5796C28.7513 58.2805 27.2306 58.0423 25.7808 57.7027C22.866 57.0234 20.0121 56.1819 17.442 54.5648C16.9546 54.2646 16.5008 53.9128 16.0886 53.5155C15.4934 52.9629 15.1153 52.2159 15.0224 51.4091C14.9294 50.6024 15.1278 49.7889 15.5816 49.1155C18.7279 43.9044 21.8843 38.7034 25.0508 33.5126C25.4904 32.7744 26.1788 32.2172 26.9923 31.9411C30.5813 30.6688 34.1652 29.4066 37.7542 28.119C39.3205 27.5665 40.5625 28.1596 41.0795 29.7158C41.339 30.4698 41.7529 31.1614 42.295 31.7463C42.8371 32.3311 43.4953 32.7963 44.2275 33.1121C46.1389 34.087 48.2559 34.5901 50.4015 34.5795C52.5471 34.5689 54.6591 34.0449 56.5608 33.0513C57.8418 32.4529 58.8641 31.4126 59.4401 30.1213C58.1331 29.4477 56.6827 29.0999 55.2124 29.1075C54.3861 29.0771 53.9248 28.6918 53.8893 28.0125C53.8538 27.3333 54.3354 26.8466 55.2073 26.7402C56.2569 26.6703 57.2974 26.5005 58.3147 26.2333C61.1433 25.3158 62.8161 23.1918 63.6677 20.4595C64.0265 19.1578 64.2758 17.8285 64.4129 16.4853C64.4156 16.1895 64.4916 15.8991 64.634 15.6399C64.7764 15.3807 64.9809 15.1608 65.229 15H66.0452C66.2911 15.1697 66.4918 15.397 66.6296 15.6621C66.7675 15.9272 66.8383 16.222 66.836 16.5207C66.978 17.8631 67.234 19.191 67.6014 20.4899C68.6153 23.5973 70.577 25.7872 73.877 26.5273C74.6216 26.6542 75.3733 26.7355 76.1278 26.7706C76.9236 26.8517 77.3748 27.2775 77.3697 27.9771C77.3646 28.6766 76.8983 29.0872 76.1024 29.1278C75.6411 29.1278 75.1798 29.1582 74.7287 29.2241C73.2497 29.4118 71.8487 29.9949 70.6733 30.9121C71.6263 31.2517 72.4526 31.5812 73.3042 31.8448C74.4091 32.187 75.3378 32.9449 75.8946 33.9587C77.9476 37.4057 80.0716 40.8173 82.1347 44.2592C83.3361 46.2615 84.4767 48.3146 85.6426 50.3169L85.6324 51.6501ZM30.3431 56.1312V55.1174C30.3431 53.5104 30.3431 51.9035 30.3431 50.2966C30.3354 50.1407 30.3598 49.9848 30.4146 49.8387C30.4694 49.6925 30.5535 49.559 30.6617 49.4465C30.7699 49.334 30.9 49.2448 31.044 49.1844C31.1879 49.124 31.3427 49.0936 31.4988 49.0952C31.6543 49.0939 31.8085 49.1235 31.9524 49.1824C32.0963 49.2412 32.2271 49.3282 32.337 49.4381C32.447 49.5481 32.5339 49.6788 32.5928 49.8227C32.6517 49.9666 32.6813 50.1208 32.6799 50.2763C32.6799 50.4842 32.6799 50.692 32.6799 50.8948V78.0503C32.6799 80.2402 32.7661 80.3669 34.8445 81.1881L35.1689 81.3047C37.7218 82.1417 40.3703 82.6527 43.0514 82.8254C49.3626 83.3881 55.6686 83.4033 61.9392 82.3489C63.6959 82.1151 65.3979 81.5746 66.9678 80.7521C67.2942 80.595 67.5656 80.3431 67.7464 80.0293C67.9273 79.7154 68.0093 79.3543 67.9816 78.9931C67.9512 69.6203 67.9816 60.2372 67.9816 50.8694C67.9664 50.6179 67.9664 50.3656 67.9816 50.1141C68.0133 49.8251 68.1518 49.5583 68.3699 49.3661C68.5881 49.174 68.8702 49.0703 69.1609 49.0753C69.4517 49.0804 69.73 49.1939 69.9413 49.3936C70.1526 49.5933 70.2817 49.8647 70.3033 50.1547C70.3337 50.5399 70.3033 50.9353 70.3033 51.3256V55.8879C70.461 55.8864 70.6185 55.8746 70.7747 55.8524C73.0001 55.3455 75.266 54.8893 77.4457 54.2049C79.1805 53.6232 80.867 52.9062 82.4896 52.0607C83.402 51.6095 83.4628 50.9708 82.9356 50.0989C79.8637 45.0297 76.7867 39.969 73.7047 34.9168C73.5598 34.6312 73.3318 34.3961 73.0508 34.2426C71.672 33.7052 70.2678 33.2287 68.8535 32.7218C68.6406 33.0969 68.448 33.4112 68.2858 33.7356C67.4179 35.4137 66.9184 37.2578 66.8208 39.1444C66.8208 39.2813 66.8208 39.4182 66.7853 39.555C66.694 40.4016 66.2429 40.8832 65.5687 40.8578C64.8945 40.8325 64.5042 40.3509 64.4028 39.4891C64.3071 38.4382 64.1497 37.3939 63.9313 36.3615C63.5404 34.5399 62.6465 32.8645 61.3511 31.5255C60.2717 33.4159 58.5723 34.8753 56.5405 35.6568C53.7459 36.8196 50.6801 37.171 47.6948 36.6707C45.1929 36.3691 42.839 35.3237 40.9376 33.6697C39.9025 32.746 39.1384 31.5579 38.7275 30.2328C35.179 31.5052 31.6661 32.7674 28.1633 33.9891C27.5747 34.1803 27.078 34.5831 26.7693 35.1195C23.8292 40.0569 20.8688 44.9757 17.8881 49.8759C17.148 51.0925 17.1987 51.6247 18.4508 52.3547C19.7495 53.1087 21.1055 53.7596 22.5061 54.3012C25.0344 55.2313 27.6658 55.8525 30.3431 56.1515V56.1312ZM65.6295 22.0309C64.632 24.5372 62.7931 26.618 60.4285 27.9162C62.7972 29.2123 64.6399 31.2934 65.6397 33.8015C66.6337 31.2941 68.4663 29.2088 70.8254 27.901C68.4668 26.6134 66.6298 24.5452 65.6295 22.0512V22.0309Z" fill="#EB4648"/>
<path d="M53.8792 59.6847C53.1644 59.6847 52.7994 59.2031 52.6626 58.387C52.4954 57.0271 52.1931 55.6873 51.7603 54.3874C50.7464 51.7616 48.7188 50.3929 45.875 50.2966C44.9879 50.2662 44.4607 49.8353 44.4505 49.1307C44.4404 48.4261 44.9574 47.9749 45.8395 47.9394C49.2814 47.7975 51.5423 45.7749 52.3736 42.0541C52.5191 41.3124 52.6189 40.5624 52.6727 39.8085C52.7487 39.0278 53.1796 38.5513 53.8488 38.5412C54.5179 38.5311 54.9031 39.0076 55.0502 39.7781C55.2382 41.2037 55.5641 42.6077 56.0234 43.9703C57.0373 46.5049 59.0396 47.8127 61.7871 47.9344C61.8783 47.9344 61.9696 47.9344 62.0608 47.9344C62.3743 47.9302 62.677 48.0487 62.9043 48.2646C63.1316 48.4806 63.2655 48.7768 63.2774 49.0901C63.2673 49.4029 63.1385 49.7 62.9173 49.9212C62.696 50.1425 62.3989 50.2713 62.0862 50.2814C61.4698 50.3137 60.8566 50.3899 60.2511 50.5095C57.4986 51.1989 56.1451 53.2063 55.4557 55.7662C55.2531 56.6592 55.1142 57.5655 55.04 58.4782C54.9538 59.2538 54.5483 59.6796 53.8792 59.6847ZM57.4276 49.1155C55.8707 48.1361 54.6297 46.7279 53.8538 45.0602C53.0983 46.7254 51.8741 48.1346 50.3308 49.1155C51.8821 50.0942 53.1151 51.5033 53.8792 53.1708C54.6428 51.503 55.8759 50.0937 57.4276 49.1155V49.1155Z" fill="#FFC700"/>
<path d="M58.5935 61.9759C58.5935 61.5856 58.5935 61.1953 58.5935 60.81C58.606 60.5201 58.7272 60.2455 58.9328 60.0408C59.1385 59.836 59.4137 59.7161 59.7037 59.705C59.9828 59.6843 60.2594 59.7709 60.4769 59.947C60.6945 60.1231 60.8367 60.3756 60.8747 60.6529C60.9482 61.5892 60.9482 62.5299 60.8747 63.4663C60.8551 63.6101 60.8066 63.7485 60.7321 63.8731C60.6575 63.9977 60.5585 64.1059 60.4411 64.1911C60.3236 64.2764 60.19 64.337 60.0485 64.3692C59.9069 64.4015 59.7603 64.4047 59.6175 64.3787C59.3414 64.3582 59.0833 64.2339 58.8952 64.0307C58.7071 63.8276 58.6029 63.5607 58.6037 63.2838C58.5733 62.8529 58.5935 62.4119 58.5935 61.9759Z" fill="#FFC700"/>
<path d="M63.2318 66.7258C62.798 66.7537 62.3628 66.7537 61.929 66.7258C61.6633 66.6884 61.4192 66.5586 61.2397 66.3591C61.0602 66.1595 60.9568 65.9031 60.9477 65.6349C60.9387 65.3667 61.0244 65.1038 61.19 64.8926C61.3556 64.6814 61.5904 64.5353 61.853 64.4801C62.7896 64.4142 63.7297 64.4142 64.6664 64.4801C64.9457 64.5096 65.2025 64.6469 65.3824 64.8626C65.5622 65.0784 65.6508 65.3558 65.6295 65.6359C65.6281 65.9132 65.5235 66.18 65.3361 66.3843C65.1486 66.5886 64.8918 66.7158 64.6157 66.741C64.1645 66.7866 63.7032 66.741 63.2419 66.741L63.2318 66.7258Z" fill="#FFC700"/>
<path d="M58.5935 69.0728C58.5935 68.6824 58.5935 68.2921 58.5935 67.9018C58.5933 67.6124 58.705 67.3342 58.9053 67.1253C59.1057 66.9165 59.379 66.7933 59.6682 66.7815C59.8119 66.7632 59.9579 66.7738 60.0975 66.8129C60.2371 66.8519 60.3674 66.9185 60.4808 67.0088C60.5942 67.099 60.6884 67.2111 60.7578 67.3384C60.8272 67.4656 60.8703 67.6055 60.8848 67.7497C60.9507 68.6644 60.9507 69.5826 60.8848 70.4972C60.848 70.7874 60.6978 71.0512 60.4669 71.2308C60.236 71.4104 59.9433 71.4911 59.6529 71.4553C59.3634 71.4347 59.0924 71.305 58.8948 71.0923C58.6972 70.8797 58.5877 70.5999 58.5884 70.3096C58.5732 69.899 58.5935 69.4834 58.5935 69.0728Z" fill="#FFC700"/>
<path d="M56.1958 66.741C55.7801 66.741 55.3644 66.741 54.9589 66.741C54.6762 66.7253 54.4093 66.6054 54.2097 66.4045C54.0101 66.2037 53.892 65.936 53.8781 65.6532C53.8643 65.3703 53.9557 65.0924 54.1346 64.873C54.3136 64.6535 54.5675 64.5082 54.8474 64.4649C55.7604 64.4015 56.6768 64.4015 57.5898 64.4649C57.8676 64.4955 58.1234 64.6301 58.3059 64.8417C58.4883 65.0534 58.5839 65.3263 58.5732 65.6055C58.5724 65.896 58.4608 66.1753 58.2611 66.3863C58.0613 66.5973 57.7886 66.7242 57.4986 66.741C57.0677 66.7714 56.6317 66.741 56.1958 66.741Z" fill="#FFC700"/>
</svg>
