<svg width="42" height="48" viewBox="0 0 42 48" fill="none" xmlns="http://www.w3.org/2000/svg">
<path d="M21.0115 0.666687C27.2647 0.666687 32.4057 5.58048 32.6667 11.8068H32.6057C32.613 11.9878 32.5782 12.168 32.5041 12.3334H32.8684C35.7081 12.3334 38.6816 14.3015 39.874 19.0529L40.0035 19.6135L41.7976 34.0677C43.0887 43.2868 38.0449 47.1637 31.1645 47.3279L30.7031 47.3334H11.3599C4.36748 47.3334 -1.02073 44.7853 0.163989 34.695L0.244777 34.0677L2.05949 19.6135C2.95433 14.4968 5.95842 12.4786 8.85295 12.341L9.174 12.3334H9.3564C9.32564 12.1592 9.32564 11.981 9.3564 11.8068C9.61735 5.58048 14.7583 0.666687 21.0115 0.666687ZM14.2263 20.1017C13.0874 20.1017 12.1642 21.052 12.1642 22.2242C12.1642 23.3964 13.0874 24.3467 14.2263 24.3467C15.3652 24.3467 16.2885 23.3964 16.2885 22.2242L16.2724 21.958C16.1452 20.9114 15.2776 20.1017 14.2263 20.1017ZM27.7336 20.1017C26.5947 20.1017 25.6714 21.052 25.6714 22.2242C25.6714 23.3964 26.5947 24.3467 27.7336 24.3467C28.8725 24.3467 29.7957 23.3964 29.7957 22.2242C29.7957 21.052 28.8725 20.1017 27.7336 20.1017ZM20.9201 3.70558C16.4305 3.70558 12.791 7.33261 12.791 11.8068C12.8217 11.981 12.8217 12.1592 12.791 12.3334H29.1508C29.0859 12.1652 29.0515 11.9869 29.0492 11.8068C29.0492 7.33261 25.4097 3.70558 20.9201 3.70558Z" fill="#B7B7B7"/>
</svg>
